<?xml version="1.0" standalone="no"?>
<!DOCTYPE svg PUBLIC "-//W3C//DTD SVG 20010904//EN"
 "http://www.w3.org/TR/2001/REC-SVG-20010904/DTD/svg10.dtd">
<svg version="1.0" xmlns="http://www.w3.org/2000/svg"
 width="500.000000pt" height="500.000000pt" viewBox="0 0 500.000000 500.000000"
 preserveAspectRatio="xMidYMid meet">
<metadata>
Created by potrace 1.14, written by Peter Selinger 2001-2017
</metadata>
<g transform="translate(0.000000,500.000000) scale(0.100000,-0.100000)"
fill="#000000" stroke="none">
<path d="M2229 4136 c-2 -3 -27 -7 -54 -10 -97 -11 -131 -17 -185 -31 -30 -8
-69 -16 -86 -19 -17 -3 -49 -12 -72 -20 -23 -8 -42 -13 -42 -11 0 2 -15 -2
-34 -10 -18 -8 -44 -16 -57 -19 -26 -5 -130 -46 -197 -76 -23 -11 -49 -20 -57
-20 -8 0 -15 -4 -15 -10 0 -5 -5 -10 -10 -10 -12 0 -86 -36 -150 -74 -25 -14
-54 -30 -65 -36 -68 -36 -175 -109 -300 -204 -169 -128 -434 -394 -555 -555
-14 -18 -36 -47 -51 -65 -56 -69 -220 -328 -268 -424 l-22 -44 52 -91 c51 -91
179 -295 205 -326 7 -9 52 -67 101 -130 83 -108 287 -324 399 -422 266 -233
582 -420 895 -529 59 -20 111 -40 118 -44 6 -4 11 -5 11 -2 0 3 19 -2 42 -10
23 -8 55 -17 72 -20 17 -3 56 -11 86 -19 30 -7 75 -16 100 -20 25 -3 65 -9 90
-13 62 -9 572 -9 640 1 30 4 73 9 95 12 22 3 65 12 95 20 30 8 69 16 86 19 17
3 49 12 72 20 23 8 42 13 42 9 0 -3 6 -1 13 4 6 6 26 13 42 17 61 14 390 148
405 165 3 3 23 16 45 28 107 57 235 136 235 145 0 4 5 8 10 8 11 0 84 52 180
129 170 135 383 352 497 503 29 40 57 75 61 78 4 3 12 13 17 22 6 9 44 67 86
130 105 154 182 288 182 315 0 21 -160 299 -189 328 -8 7 -14 16 -14 19 0 12
-94 138 -205 275 -65 80 -255 276 -336 346 -189 164 -393 302 -598 405 -100
51 -274 127 -306 134 -5 1 -55 16 -110 33 -106 33 -254 69 -320 78 -22 3 -51
8 -65 11 -31 7 -605 16 -611 10z m436 -81 c529 -56 997 -382 1234 -860 62
-125 111 -265 131 -375 7 -36 13 -72 15 -80 23 -116 23 -364 -1 -483 -2 -12
-9 -49 -15 -82 -32 -175 -139 -419 -257 -585 -85 -120 -242 -276 -363 -362
-152 -109 -416 -228 -559 -253 -19 -3 -42 -7 -50 -9 -131 -25 -156 -27 -305
-27 -323 0 -643 102 -904 289 -121 86 -278 243 -363 363 -119 166 -225 408
-258 589 -7 36 -13 72 -15 80 -39 204 -17 486 57 720 118 372 387 698 732 889
77 42 224 108 261 116 5 1 17 4 25 7 163 59 430 85 635 63z"/>
<path d="M2513 3876 c-108 -37 -159 -177 -103 -286 68 -134 294 -131 360 4 22
47 27 127 9 173 -15 40 -67 91 -108 104 -47 16 -119 18 -158 5z m149 -92 c84
-75 37 -214 -72 -214 -93 0 -145 96 -99 186 27 54 124 69 171 28z"/>
<path d="M2120 3839 c-8 -5 -28 -13 -43 -19 l-28 -10 7 -117 c3 -65 8 -121 11
-125 2 -5 1 -8 -4 -8 -4 0 -46 40 -93 90 l-85 89 -55 -23 c-30 -13 -54 -27
-53 -32 2 -9 103 -254 126 -306 14 -32 13 -32 56 -17 36 13 37 19 10 79 -12
25 -27 61 -34 80 -7 19 -20 52 -29 73 -9 20 -15 37 -12 37 2 0 31 -33 64 -72
105 -126 117 -138 139 -138 37 0 44 22 38 112 -11 147 -12 189 -5 181 4 -4 26
-55 50 -113 24 -58 47 -109 51 -114 8 -9 65 10 75 26 3 5 2 14 -4 21 -5 7 -19
39 -32 72 -13 33 -27 64 -32 70 -4 5 -8 15 -8 22 0 7 -11 36 -24 65 -12 29
-26 61 -29 71 -7 18 -33 22 -57 6z"/>
<path d="M3013 3777 c-30 -37 -173 -309 -168 -317 3 -6 19 -17 35 -25 l28 -14
66 117 66 117 1 -60 c1 -33 3 -82 4 -110 2 -27 3 -71 4 -97 1 -44 3 -47 47
-72 26 -14 48 -26 49 -26 2 0 43 71 91 158 47 86 89 160 91 164 2 4 -12 15
-31 25 -43 20 -40 23 -112 -109 -26 -49 -49 -86 -51 -84 -4 3 -10 138 -12 252
-1 38 -4 42 -50 67 -38 21 -51 24 -58 14z"/>
<path d="M3326 3354 l-129 -125 19 -26 c11 -15 25 -28 30 -30 6 -2 70 54 143
124 l133 128 -22 28 c-12 15 -27 27 -33 27 -7 0 -70 -57 -141 -126z"/>
<path d="M1444 3374 c-63 -26 -115 -120 -100 -180 4 -15 21 -40 38 -56 42 -39
82 -37 146 6 72 50 102 52 102 6 0 -30 -28 -65 -62 -76 -12 -3 -17 -12 -14
-22 20 -72 21 -73 70 -43 120 75 116 245 -6 258 -37 4 -51 -1 -103 -35 -33
-22 -65 -37 -72 -35 -33 13 -19 76 22 95 25 11 28 22 16 69 -6 25 -7 25 -37
13z"/>
<path d="M2419 3336 c-2 -2 -29 -6 -59 -9 -160 -17 -347 -120 -478 -263 -152
-164 -221 -351 -216 -584 3 -129 5 -141 39 -246 43 -132 94 -213 205 -325 112
-113 221 -177 375 -220 112 -31 314 -31 429 0 263 70 475 263 573 519 14 37
27 78 29 92 2 14 7 46 12 72 11 58 8 236 -6 304 -19 90 -76 223 -128 299 -39
56 -161 178 -209 210 -75 48 -128 79 -140 81 -5 1 -35 12 -64 24 -30 12 -78
26 -105 31 -51 10 -250 22 -257 15z m241 -502 c94 -46 141 -97 188 -204 22
-49 28 -94 21 -165 -13 -132 -88 -241 -207 -301 -52 -26 -66 -29 -162 -29 -98
0 -109 2 -165 31 -77 41 -129 93 -168 169 -26 51 -31 74 -35 152 -4 89 -3 95
30 165 43 89 94 141 173 178 85 40 82 39 175 38 74 -1 93 -6 150 -34z"/>
<path d="M3572 3312 l-23 -18 25 -45 26 -46 -125 -74 c-71 -42 -125 -80 -125
-89 0 -8 9 -26 19 -39 l19 -24 51 31 c28 18 53 32 55 32 3 0 31 17 63 38 83
55 84 55 116 5 22 -36 30 -42 45 -34 47 27 48 23 -29 155 -41 69 -78 126 -84
126 -5 0 -20 -8 -33 -18z"/>
<path d="M1210 3009 c-6 -24 -12 -48 -14 -54 -1 -5 21 -48 50 -95 28 -47 50
-86 49 -88 -2 -2 -34 6 -71 17 -37 11 -69 19 -70 18 0 -1 -6 -17 -13 -36 -9
-27 -8 -36 1 -42 17 -10 348 -103 351 -98 2 2 8 21 14 41 l11 37 -85 22 c-46
12 -80 25 -76 29 4 4 52 26 105 50 95 42 97 44 106 84 5 23 13 49 17 59 5 12
-27 1 -114 -43 -66 -33 -123 -60 -125 -60 -2 0 -26 39 -55 88 -74 127 -68 121
-81 71z"/>
<path d="M3603 2882 c-81 -29 -124 -91 -124 -179 0 -159 137 -254 279 -193 82
36 128 116 116 205 -20 142 -137 214 -271 167z m135 -86 c77 -40 72 -174 -6
-205 -41 -16 -74 -17 -108 -3 -55 23 -84 107 -54 161 28 53 112 76 168 47z"/>
<path d="M1255 2532 c-41 -14 -82 -45 -105 -78 -27 -41 -36 -130 -18 -188 15
-48 78 -113 120 -124 89 -25 195 13 240 85 34 56 32 162 -5 219 -39 63 -78 86
-150 90 -34 2 -71 0 -82 -4z m132 -92 c13 0 43 -51 48 -81 15 -85 -55 -150
-143 -133 -52 10 -79 40 -89 97 -13 85 64 150 152 125 16 -4 31 -8 32 -8z"/>
<path d="M3503 2388 c0 -7 -4 -24 -7 -38 -7 -24 -4 -26 64 -43 55 -15 70 -23
70 -37 0 -19 -6 -22 -121 -50 -44 -11 -46 -14 -57 -58 -6 -26 -9 -48 -8 -49 1
-2 36 8 77 22 94 31 95 31 102 -5 8 -35 42 -60 95 -67 48 -6 84 14 106 61 18
39 56 196 47 197 -15 2 -43 8 -122 27 -46 12 -97 23 -114 26 -16 3 -46 10 -65
16 -46 13 -67 13 -67 -2z m247 -124 c31 -7 32 -8 26 -47 -8 -50 -21 -67 -53
-67 -30 0 -37 18 -29 75 8 48 7 48 56 39z"/>
<path d="M1505 2085 c-27 -14 -101 -48 -162 -77 -62 -28 -113 -54 -113 -57 0
-14 41 -72 48 -68 7 5 111 54 244 116 37 17 72 31 77 31 5 0 2 18 -7 40 -9 22
-21 39 -27 39 -5 0 -32 -11 -60 -24z"/>
<path d="M3392 2040 l-21 -39 77 -39 c42 -22 117 -60 165 -86 49 -25 92 -44
97 -41 9 6 34 64 29 69 -2 2 -71 39 -154 81 -82 43 -155 81 -161 86 -7 5 -18
-6 -32 -31z"/>
<path d="M1597 1948 c-8 -24 -21 -62 -28 -84 l-12 -42 -31 13 c-42 17 -87 3
-120 -36 -47 -55 -34 -109 46 -201 13 -14 30 -36 38 -47 8 -12 19 -21 25 -21
10 0 221 167 274 217 21 19 22 23 8 29 -9 3 -19 14 -22 25 -9 28 -20 24 -82
-27 -42 -34 -58 -42 -64 -32 -13 20 -11 35 11 84 42 92 42 90 6 130 l-33 36
-16 -44z m-50 -223 c37 -37 36 -52 -10 -76 -36 -20 -88 52 -67 92 16 28 38 23
77 -16z"/>
<path d="M3316 1899 l-29 -32 92 -89 c50 -50 91 -91 91 -93 0 -1 -28 4 -62 12
-35 8 -101 23 -148 33 l-85 19 -40 -39 -39 -40 134 -129 c74 -72 137 -130 140
-130 3 0 16 14 29 31 l25 31 -87 82 c-86 81 -104 104 -69 90 9 -4 28 -9 42
-11 14 -3 71 -15 126 -27 l102 -23 36 36 c20 20 36 40 36 44 0 4 -35 41 -77
82 -43 42 -103 100 -134 130 l-55 55 -28 -32z"/>
<path d="M1844 1635 c-100 -44 -146 -194 -88 -281 32 -47 47 -60 102 -85 130
-61 268 25 277 170 5 82 -39 152 -121 191 -50 23 -123 25 -170 5z m146 -80
c106 -55 59 -225 -63 -225 -68 0 -125 75 -107 141 10 36 45 82 70 92 28 10 71
7 100 -8z"/>
<path d="M2886 1579 c-45 -11 -138 -65 -153 -89 -8 -12 -3 -36 21 -98 18 -45
35 -84 39 -88 7 -7 106 25 124 41 10 8 10 17 1 43 -7 18 -17 31 -23 29 -46
-18 -54 -17 -65 3 -6 12 -9 28 -6 36 8 21 84 53 118 49 80 -11 127 -112 87
-187 -15 -28 -80 -56 -120 -52 -34 3 -37 0 -52 -37 -15 -39 -15 -39 10 -45 62
-16 164 18 215 73 37 38 49 77 47 141 -5 126 -118 210 -243 181z"/>
</g>
</svg>
